PathFileType	4	(X/Y/Z)	7_coords_data.trc
DataRate	CameraRate	NumFrames	NumMarkers	Units	OrigDataRate	OrigDataStartFrame	OrigNumFrames
30.0	30.0	7	21	m	30.0	49	68
Frame#	Time	THUMB_TIP	THUMB_IP	THUMB_MCP	THUMB_CMC	INDEX_TIP	INDEX_DIP	INDEX_PIP	INDEX_MCP	MIDDLE_TIP	MIDDLE_DIP	MIDDLE_PIP	MIDDLE_MCP	RING_TIP	RING_DIP	RING_PIP	RING_MCP	PINKY_TIP	PINKY_DIP	PINKY_PIP	PINKY_MCP	WRIST
X1	Y1	Z1	X2	Y2	Z2	X3	Y3	Z3	X4	Y4	Z4	X5	Y5	Z5	X6	Y6	Z6	X7	Y7	Z7	X8	Y8	Z8	X9	Y9	Z9	X10	Y10	Z10	X11	Y11	Z11	X12	Y12	Z12	X13	Y13	Z13	X14	Y14	Z14	X15	Y15	Z15	X16	Y16	Z16	X17	Y17	Z17	X18	Y18	Z18	X19	Y19	Z19	X20	Y20	Z20	X21	Y21	Z21
48	1.6	0.004687210083007812	-0.07843769836425782	0.99481201171875	-0.016729000091552735	-0.07213159942626954	1.00372998046875	-0.03998799896240234	-0.05831959915161133	1.0133099975585937	-0.045119598388671876	-0.03134169960021973	1.023760009765625	0.01107979965209961	-0.09359950256347656	0.9851290283203125	-0.000632170975208282	-0.08414749908447265	0.9713079833984375	-0.016558799743652344	-0.07151589965820312	0.9606619873046875	-0.04255670166015625	-0.04416400146484375	0.9670089721679688	-0.009439290046691895	-0.0608307991027832	1.0000599975585938	0.002385080099105835	-0.06286240005493164	0.9816710205078125	0.0016228899955749512	-0.054042499542236326	0.9584940185546875	-0.02693600082397461	-0.02554689979553223	0.9626320190429688	0.003335069894790649	-0.0526593017578125	1.0066199951171875	0.012427499771118164	-0.04886399841308594	0.9881500244140625	0.013825900077819824	-0.03533570098876953	0.9668079833984375	-0.013214799880981445	-0.010826899528503417	0.9702509765625	0.05261370086669922	-0.02090369987487793	0.9585919799804687	0.03741510009765625	-0.013128000259399414	0.9647750244140625	0.02222170066833496	-0.007548840045928955	0.9716060180664062	-0.0013359899520874019	-0.0022767601013183587	0.9853870239257813	-0.05449300003051758	0.003605200052261352	1.03275
49	1.6333333333333333	0.002121579885482788	-0.0831083984375	0.9903729858398438	-0.018894800186157225	-0.07500959777832031	1.0016599731445313	-0.04016590118408203	-0.05991260147094726	1.0141900024414063	-0.043197498321533204	-0.03201599884033203	1.025510009765625	0.013116499900817872	-0.0873541030883789	0.9812379760742187	0.001088750004768371	-0.07937169647216796	0.9672689819335938	-0.01632929992675781	-0.06771890258789062	0.9575079956054687	-0.04340010070800781	-0.04311920166015625	0.9680059814453125	0.0015400700569152832	-0.06410900115966797	0.9957550048828125	0.0076359701156616215	-0.06151399993896484	0.976343017578125	0.0005979509949684141	-0.049372100830078126	0.9541409912109375	-0.029286100387573243	-0.023481399536132812	0.963155029296875	0.01530780029296875	-0.054052101135253904	0.997135986328125	0.01832550048828125	-0.045695499420166014	0.9783729858398438	0.01227239990234375	-0.029517799377441405	0.9602979736328126	-0.01579979991912842	-0.008598930358886718	0.9708400268554688	0.05029930114746094	-0.014773099899291993	0.9549879760742187	0.03502339935302735	-0.0075696401596069334	0.9615770263671874	0.019994300842285158	-0.002498169898986816	0.969156982421875	-0.0030438399314880373	0.001322909951210022	0.984833984375	-0.05191619873046875	0.002406610012054443	1.0353399658203124
50	1.6666666666666667	-0.004281660079956054	-0.08779270172119141	0.9864730224609375	-0.023816299438476563	-0.07727330017089844	0.9988590087890625	-0.041966598510742185	-0.06138949966430664	1.0141799926757813	-0.04140060043334961	-0.032935001373291015	1.0272099609375	0.015343799591064453	-0.08285749816894532	0.975552978515625	0.001690490007400512	-0.07535330200195313	0.9622169799804687	-0.017211599349975584	-0.06394910049438476	0.9548820190429688	-0.044070201873779295	-0.041952899932861325	0.9691589965820312	0.015808899879455565	-0.06792019653320312	0.9841849975585938	0.01354800033569336	-0.059689399719238284	0.96564697265625	-0.001390359997749328	-0.04403329849243164	0.9487789916992188	-0.0316515007019043	-0.021593299865722657	0.9642830200195313	0.02805929946899414	-0.053627300262451175	0.9805540161132813	0.022610599517822266	-0.04160020065307617	0.9658319702148438	0.009587369918823242	-0.024045700073242186	0.9544580078125	-0.01751339912414551	-0.006664720058441162	0.9712369995117187	0.04779859924316406	-0.009944769859313965	0.952656982421875	0.03246450042724609	-0.0030903899669647208	0.9597340087890625	0.01768160057067871	0.0014393099546432492	0.9677789916992188	-0.004482359886169434	0.004069389820098877	0.9844219970703125	-0.04973369979858398	0.0012488499879837029	1.038030029296875
51	1.7	-0.009467840194702148	-0.09024749755859375	0.9823870239257813	-0.02645680046081543	-0.07803859710693359	0.997030029296875	-0.042049900054931644	-0.06197689819335937	1.0143599853515626	-0.03941279983520508	-0.03324599838256836	1.0283900146484375	0.018061800003051756	-0.07949420166015625	0.9656680297851562	0.0017943400144577021	-0.07151450347900391	0.9557760009765625	-0.01810190010070801	-0.060640098571777344	0.9521060180664063	-0.04420059967041016	-0.041286399841308594	0.9699119873046875	0.02708489990234375	-0.06605809783935547	0.9644509887695313	0.01644070053100586	-0.05423740005493164	0.9510759887695313	-0.004214469909667969	-0.038187198638916016	0.9429409790039063	-0.033415298461914066	-0.020098800659179687	0.9648989868164063	0.03316880035400391	-0.048574100494384764	0.9662329711914063	0.023268800735473633	-0.03523500061035156	0.9554719848632812	0.006485169887542725	-0.018477399826049803	0.9497789916992188	-0.019061100006103514	-0.005004350185394287	0.9716840209960937	0.04557310104370117	-0.004239049911499024	0.9509390258789062	0.03010919952392578	0.001609200000762939	0.9587340087890625	0.015354800224304199	0.005074309825897217	0.9674459838867188	-0.005763989925384521	0.006135980129241944	0.9844509887695313	-0.048376399993896486	0.0005485569834709161	1.0398299560546875
52	1.7333333333333334	-0.010011199951171876	-0.09060880279541016	0.9807869873046875	-0.02617609977722168	-0.07772149658203124	0.9965239868164063	-0.04081219863891602	-0.06220700073242187	1.0149199829101563	-0.03821419906616211	-0.03314289855957031	1.0293699951171875	0.020186399459838866	-0.07600599670410156	0.9565330200195312	0.002362489938735962	-0.0678842010498047	0.949885986328125	-0.018283700942993163	-0.057742801666259766	0.9495059814453125	-0.043661201477050784	-0.04084880065917969	0.970677978515625	0.03057699966430664	-0.06122249984741211	0.95277197265625	0.01657349967956543	-0.04877030181884766	0.9430380249023438	-0.006031479835510254	-0.03387969970703125	0.9400139770507813	-0.034294898986816404	-0.01914780044555664	0.9655700073242187	0.03467279815673828	-0.04306209945678711	0.9572930297851563	0.02242849922180176	-0.029513500213623048	0.9489310302734375	0.003688509941101074	-0.0139483003616333	0.9473079833984375	-0.020379299163818358	-0.003524840116500854	0.97197802734375	0.04397909927368164	0.000551079988479614	0.9503720092773438	0.02844860076904297	0.0055251197814941404	0.958291015625	0.01353969955444336	0.008237420082092285	0.9674039916992188	-0.007219500064849852	0.008058289527893066	0.9849349975585937	-0.04744729995727539	-0.000219293996691703	1.0408599853515625
53	1.7666666666666666	-0.009312150001525878	-0.09044650268554688	0.9805809936523437	-0.024968799591064454	-0.077668701171875	0.996780029296875	-0.03906600189208984	-0.062435699462890626	1.0159299926757812	-0.03643650054931641	-0.03325579833984375	1.0306099853515625	0.021281600952148438	-0.07359439849853516	0.9492760009765625	0.002476589918136596	-0.06556400299072265	0.9459019775390625	-0.018373500823974608	-0.05611349868774414	0.9482949829101562	-0.04246089935302735	-0.04097880172729492	0.9720189819335937	0.0324552001953125	-0.05601110076904297	0.939718017578125	0.015505900382995605	-0.04370750045776367	0.9350579833984375	-0.0084968900680542	-0.030404699325561522	0.93760498046875	-0.03439030075073242	-0.01891189956665039	0.9667739868164062	0.03568560028076172	-0.038208599090576174	0.9473350219726563	0.02109429931640625	-0.025113800048828124	0.9430449829101563	0.001067960023880004	-0.01092490005493164	0.9453460083007813	-0.02052440071105957	-0.003079489946365356	0.972510009765625	0.04331909942626953	0.00444435977935791	0.95006298828125	0.027738500595092773	0.008469860076904296	0.9586950073242188	0.01281369972229004	0.010152400016784668	0.9678699951171875	-0.007224440097808838	0.008879260063171386	0.985198974609375	-0.04645370101928711	-0.000643463015556335	1.04252001953125
54	1.8	-0.006925000190734863	-0.09016860198974609	0.9816220092773438	-0.022536500930786133	-0.07751799774169922	0.9981599731445312	-0.036449901580810545	-0.06267290115356446	1.0176599731445313	-0.034588001251220704	-0.03317070007324219	1.0320400390625	0.022511899948120116	-0.07096369934082031	0.9425009765625	0.002902879953384399	-0.06332649993896484	0.9423619995117187	-0.017783000946044923	-0.05478860092163086	0.9477160034179688	-0.04073379898071289	-0.04112860107421875	0.9734819946289063	0.0326786994934082	-0.05037730026245117	0.929531982421875	0.014063899993896484	-0.0389009017944336	0.92939697265625	-0.010123800277709961	-0.02750349998474121	0.936458984375	-0.03372610092163086	-0.018762699127197267	0.9683729858398438	0.0354370002746582	-0.03230139923095703	0.9382000122070312	0.01921820068359375	-0.019879499435424806	0.9381610107421875	-0.001068879961967468	-0.007535109996795655	0.9442969970703124	-0.020292699813842772	-0.0024586799144744867	0.9732080078125	0.04254510116577148	0.009071660041809083	0.9497780151367188	0.02699679946899414	0.01186460018157959	0.95893798828125	0.01223270034790039	0.01265410041809082	0.9685830078125	-0.007372950077056885	0.009951600074768066	0.986051025390625	-0.04543109893798828	-0.000989654004573822	1.04393994140625
